<svg width="183" height="122" viewBox="0 0 183 122" fill="none" xmlns="http://www.w3.org/2000/svg">
<path d="M91.119 120.982C123.441 120.982 149.644 94.7789 149.644 62.3418C149.644 29.9047 123.325 3.70111 91.119 3.70111C58.7974 3.70111 32.5938 29.9047 32.5938 62.3418C32.5938 94.7789 58.7974 120.982 91.119 120.982Z" fill="#F1F3F9" stroke="#D6DCE8" stroke-width="2" stroke-miterlimit="10"/>
<path d="M157.074 43.7622C159.687 43.7622 161.806 41.6432 161.806 39.0294C161.806 36.4155 159.687 34.2966 157.074 34.2966C154.46 34.2966 152.341 36.4155 152.341 39.0294C152.341 41.6432 154.46 43.7622 157.074 43.7622Z" fill="#F1F3F9"/>
<path d="M164 25.2929C165.785 25.2929 167.232 23.8458 167.232 22.0607C167.232 20.2756 165.785 18.8286 164 18.8286C162.215 18.8286 160.768 20.2756 160.768 22.0607C160.768 23.8458 162.215 25.2929 164 25.2929Z" fill="#F1F3F9"/>
<path d="M35.2488 23.902C37.0338 23.902 38.4809 22.4549 38.4809 20.6698C38.4809 18.8848 37.0338 17.4377 35.2488 17.4377C33.4637 17.4377 32.0166 18.8848 32.0166 20.6698C32.0166 22.4549 33.4637 23.902 35.2488 23.902Z" fill="#F1F3F9"/>
<path d="M15.5094 86.2369C18.8246 86.2369 21.512 83.5494 21.512 80.2343C21.512 76.9191 18.8246 74.2317 15.5094 74.2317C12.1943 74.2317 9.50684 76.9191 9.50684 80.2343C9.50684 83.5494 12.1943 86.2369 15.5094 86.2369Z" fill="#F1F3F9"/>
<path d="M75.0655 93.6397L28.6757 103.156C27.9976 103.262 27.3755 102.909 27.2703 102.231L13.1237 32.9822C13.0185 32.304 13.3709 31.682 14.049 31.5768L60.4388 22.0601C61.1169 21.9549 61.739 22.3073 61.8442 22.9854L76.0665 92.2311C76.1684 92.8335 75.7436 93.5345 75.0655 93.6397Z" fill="white" stroke="#C5CCDA" stroke-width="2" stroke-miterlimit="10"/>
<path d="M25.8894 66.3678L44.0407 62.638" stroke="#D6DCE8" stroke-width="2" stroke-miterlimit="10" stroke-linecap="round" stroke-linejoin="round"/>
<path d="M49.4513 61.5422L53.4374 60.7234" stroke="#D6DCE8" stroke-width="2" stroke-miterlimit="10" stroke-linecap="round" stroke-linejoin="round"/>
<path d="M58.2779 59.724L62.2641 58.9052" stroke="#D6DCE8" stroke-width="2" stroke-miterlimit="10" stroke-linecap="round" stroke-linejoin="round"/>
<path d="M26.8918 71.2795L45.0431 67.5497" stroke="#D6DCE8" stroke-width="2" stroke-miterlimit="10" stroke-linecap="round" stroke-linejoin="round"/>
<path d="M50.4511 66.3822L54.4404 65.635" stroke="#D6DCE8" stroke-width="2" stroke-miterlimit="10" stroke-linecap="round" stroke-linejoin="round"/>
<path d="M59.2086 64.6389L63.1948 63.8201" stroke="#D6DCE8" stroke-width="2" stroke-miterlimit="10" stroke-linecap="round" stroke-linejoin="round"/>
<path d="M27.8913 76.1199L46.0427 72.3901" stroke="#D6DCE8" stroke-width="2" stroke-miterlimit="10" stroke-linecap="round" stroke-linejoin="round"/>
<path d="M51.4532 71.2942L55.4394 70.4754" stroke="#D6DCE8" stroke-width="2" stroke-miterlimit="10" stroke-linecap="round" stroke-linejoin="round"/>
<path d="M60.2076 69.479L64.1938 68.6602" stroke="#D6DCE8" stroke-width="2" stroke-miterlimit="10" stroke-linecap="round" stroke-linejoin="round"/>
<path d="M28.8907 80.9599L47.0451 77.3018" stroke="#D6DCE8" stroke-width="2" stroke-miterlimit="10" stroke-linecap="round" stroke-linejoin="round"/>
<path d="M31.7086 94.6263L36.8324 93.5429" stroke="#D6DCE8" stroke-width="2" stroke-miterlimit="10" stroke-linecap="round" stroke-linejoin="round"/>
<path d="M30.9795 91.0672L40.0926 89.2366" stroke="#D6DCE8" stroke-width="2" stroke-miterlimit="10" stroke-linecap="round" stroke-linejoin="round"/>
<path d="M58.9795 87.5576L68.0209 85.7301" stroke="#D6DCE8" stroke-width="2" stroke-miterlimit="10" stroke-linecap="round" stroke-linejoin="round"/>
<path d="M52.4527 76.1343L56.4389 75.3155" stroke="#D6DCE8" stroke-width="2" stroke-miterlimit="10" stroke-linecap="round" stroke-linejoin="round"/>
<path d="M61.2105 74.391L65.1967 73.5722" stroke="#D6DCE8" stroke-width="2" stroke-miterlimit="10" stroke-linecap="round" stroke-linejoin="round"/>
<path d="M32.0229 40.0265C30.4601 40.3551 29.3699 41.6895 29.1897 43.316C29.1342 43.673 29.3913 43.9643 29.7317 44.0308C30.0721 44.0974 30.3429 43.8332 30.3984 43.4762C30.5023 42.4183 31.287 41.4935 32.2872 41.2832C33.2874 41.0729 34.3641 41.5371 34.8992 42.5297C35.0938 42.8342 35.4481 42.9669 35.7328 42.7689C36.0176 42.5708 36.1356 42.2007 35.941 41.8962C35.1071 40.4139 33.5857 39.6978 32.0229 40.0265Z" fill="#AAB2C5"/>
<path d="M46.3652 37.0103C44.8024 37.3389 43.7122 38.6733 43.532 40.2998C43.4765 40.6568 43.7336 40.9481 44.074 41.0146C44.4144 41.0812 44.6852 40.817 44.7407 40.46C44.8446 39.4021 45.6293 38.4774 46.6295 38.267C47.6296 38.0567 48.7064 38.521 49.2415 39.5136C49.4361 39.818 49.7904 39.9507 50.0751 39.7527C50.3599 39.5547 50.4779 39.1845 50.2833 38.8801C49.4494 37.3978 47.928 36.6817 46.3652 37.0103Z" fill="#AAB2C5"/>
<path d="M36.8384 45.4507L37.7418 45.2536C38.87 46.7547 41.0217 46.9406 42.4382 45.7581C43.003 45.3437 43.4377 44.6665 43.5792 43.9804L44.4827 43.7834C44.1881 46.1044 41.9289 47.7619 39.6622 47.3827C38.5983 47.178 37.5131 46.5411 36.8384 45.4507Z" fill="#AAB2C5"/>
<circle opacity="0.4" cx="51.3774" cy="45.5842" r="2.44265" transform="rotate(-11.8756 51.3774 45.5842)" fill="#D6DCE8"/>
<circle opacity="0.4" cx="30.8881" cy="49.8927" r="2.44265" transform="rotate(-11.8756 30.8881 49.8927)" fill="#D6DCE8"/>
<path d="M119.239 113.297L68.0595 116.294C67.3211 116.371 66.7513 115.793 66.6746 115.054L62.217 38.777C62.1403 38.0385 62.7183 37.4688 63.4567 37.392L114.636 34.3953C115.375 34.3186 115.945 34.8966 116.021 35.635L120.479 111.913C120.474 112.65 119.978 113.221 119.239 113.297Z" fill="white" stroke="#C5CCDA" stroke-width="2" stroke-miterlimit="10"/>
<path d="M84.6531 78.409L109.232 76.9742" stroke="#D6DCE8" stroke-width="2" stroke-miterlimit="10" stroke-linecap="round" stroke-linejoin="round"/>
<path d="M84.405 73.9273L108.914 72.492" stroke="#D6DCE8" stroke-width="2" stroke-miterlimit="10" stroke-linecap="round" stroke-linejoin="round"/>
<path d="M84.9011 82.8905L109.48 81.4557" stroke="#D6DCE8" stroke-width="2" stroke-miterlimit="10" stroke-linecap="round" stroke-linejoin="round"/>
<path d="M73.6652 87.9902L109.729 85.8672" stroke="#D6DCE8" stroke-width="2" stroke-miterlimit="10" stroke-linecap="round" stroke-linejoin="round"/>
<path d="M73.9134 92.4717L94.5308 91.219" stroke="#D6DCE8" stroke-width="2" stroke-miterlimit="10" stroke-linecap="round" stroke-linejoin="round"/>
<path d="M74.8002 107.447L79.9122 107.134" stroke="#D6DCE8" stroke-width="2" stroke-miterlimit="10" stroke-linecap="round" stroke-linejoin="round"/>
<path d="M74.6156 103.946L83.6492 103.381" stroke="#D6DCE8" stroke-width="2" stroke-miterlimit="10" stroke-linecap="round" stroke-linejoin="round"/>
<path d="M101.716 102.319L110.679 101.823" stroke="#D6DCE8" stroke-width="2" stroke-miterlimit="10" stroke-linecap="round" stroke-linejoin="round"/>
<path d="M81.192 83.843C81.1219 83.8424 81.0519 83.8418 81.0523 83.7719L79.8767 81.2449L75.4608 81.4883L74.6035 84.1386C74.6031 84.2085 74.5326 84.2778 74.4625 84.2773L73.5512 84.3397C73.4812 84.3391 73.4111 84.3386 73.4115 84.2686C73.3419 84.1981 73.3419 84.1981 73.4124 84.1288L76.5546 74.5745C76.555 74.5046 76.6255 74.4352 76.6956 74.4358L77.9572 74.3762C78.0273 74.3768 78.0974 74.3774 78.0969 74.4473L82.3849 83.5731C82.3844 83.643 82.384 83.7129 82.384 83.7129C82.3836 83.7828 82.3135 83.7823 82.2434 83.7817L81.192 83.843ZM75.7484 80.3019L79.3231 80.1215L77.2492 75.5592L75.7484 80.3019Z" fill="#D6DCE8"/>
<path d="M98.4157 51.3895C99.4897 51.3209 100.351 50.3416 100.283 49.2676C100.214 48.1937 99.235 47.3319 98.161 47.4005C97.087 47.4691 96.2253 48.4484 96.2939 49.5223C96.3673 50.673 97.265 51.463 98.4157 51.3895Z" fill="#AAB2C5"/>
<path d="M82.903 52.404C83.977 52.3354 84.8388 51.3561 84.7702 50.2821C84.7016 49.2081 83.7223 48.3464 82.6483 48.4149C81.5744 48.4835 80.7126 49.4628 80.7812 50.5368C80.9313 51.6826 81.8291 52.4725 82.903 52.404Z" fill="#AAB2C5"/>
<path d="M87.4785 55.9879C87.6662 57.7617 89.1418 59.0969 90.851 59.0006C92.5603 58.9043 93.8765 57.4118 93.8638 55.6281L87.4785 55.9879Z" fill="#AAB2C5"/>
<circle opacity="0.4" cx="102.544" cy="58.0975" r="2.64249" transform="rotate(-3.22458 102.544 58.0975)" fill="#D6DCE8"/>
<circle opacity="0.4" cx="79.93" cy="59.3714" r="2.64249" transform="rotate(-3.22458 79.93 59.3714)" fill="#D6DCE8"/>
<path d="M170.543 79.7581L124.63 91.2494C123.968 91.4311 123.321 91.0358 123.14 90.374L105.993 21.8355C105.812 21.1737 106.207 20.5271 106.869 20.3455L152.782 8.85411C153.444 8.67246 154.09 9.06777 154.272 9.72953L171.418 78.2681C171.6 78.9299 171.204 79.5764 170.543 79.7581Z" fill="white" stroke="#C5CCDA" stroke-width="2" stroke-miterlimit="10"/>
<path d="M118.233 49.6166L123.924 72.3253L161.077 63.0143L155.386 40.3057L118.233 49.6166Z" stroke="#D6DCE8" stroke-width="2" stroke-miterlimit="10" stroke-linecap="round" stroke-linejoin="round"/>
<path d="M126.54 82.5658L131.77 81.2829" stroke="#D6DCE8" stroke-width="2" stroke-miterlimit="10" stroke-linecap="round" stroke-linejoin="round"/>
<path d="M125.584 78.9595L134.861 76.6253" stroke="#D6DCE8" stroke-width="2" stroke-miterlimit="10" stroke-linecap="round" stroke-linejoin="round"/>
<path d="M154.332 74.0635L163.609 71.7293" stroke="#D6DCE8" stroke-width="2" stroke-miterlimit="10" stroke-linecap="round" stroke-linejoin="round"/>
<path d="M127.311 47.4183L132.989 70.1146" stroke="#D6DCE8" stroke-width="2" stroke-miterlimit="10" stroke-linecap="round" stroke-linejoin="round"/>
<path d="M136.795 45.0021L142.542 67.671" stroke="#D6DCE8" stroke-width="2" stroke-miterlimit="10" stroke-linecap="round" stroke-linejoin="round"/>
<path d="M146.374 42.6272L152.052 65.3234" stroke="#D6DCE8" stroke-width="2" stroke-miterlimit="10" stroke-linecap="round" stroke-linejoin="round"/>
<path d="M119.715 55.3824L156.822 46.0457" stroke="#D6DCE8" stroke-width="2" stroke-miterlimit="10" stroke-linecap="round" stroke-linejoin="round"/>
<path d="M121.094 61.053L158.228 51.7851" stroke="#D6DCE8" stroke-width="2" stroke-miterlimit="10" stroke-linecap="round" stroke-linejoin="round"/>
<path d="M122.568 66.765L159.675 57.4282" stroke="#D6DCE8" stroke-width="2" stroke-miterlimit="10" stroke-linecap="round" stroke-linejoin="round"/>
<path d="M125.142 25.481C123.279 25.9313 122.02 27.571 121.862 29.5284C121.808 29.9586 122.127 30.2988 122.538 30.3664C122.949 30.434 123.264 30.1074 123.318 29.6772C123.404 28.4046 124.312 27.2671 125.504 26.9789C126.696 26.6906 128.005 27.2088 128.682 28.3801C128.927 28.7383 129.356 28.8847 129.691 28.637C130.025 28.3892 130.153 27.941 129.909 27.5828C128.855 25.8349 127.005 25.0306 125.142 25.481Z" fill="#AAB2C5"/>
<path d="M137.692 22.4467C135.985 22.8595 134.855 24.4677 134.747 26.4131C134.706 26.8403 135.006 27.185 135.386 27.2601C135.766 27.3352 136.05 27.0161 136.091 26.5889C136.147 25.3237 136.962 24.2088 138.054 23.9446C139.147 23.6804 140.362 24.2211 141.009 25.3999C141.241 25.7611 141.639 25.915 141.943 25.6748C142.246 25.4345 142.356 24.9908 142.124 24.6296C141.12 22.8696 139.4 22.0339 137.692 22.4467Z" fill="#AAB2C5"/>
<path d="M135.042 36.7295C136.166 36.4578 136.857 35.3263 136.585 34.2024C136.313 33.0785 135.182 32.3876 134.058 32.6594C132.934 32.9311 132.243 34.0626 132.515 35.1865C132.787 36.3104 133.918 37.0013 135.042 36.7295Z" fill="#AAB2C5"/>
</svg>
