<?xml version="1.0" standalone="no"?>
<!DOCTYPE svg PUBLIC "-//W3C//DTD SVG 20010904//EN"
 "http://www.w3.org/TR/2001/REC-SVG-20010904/DTD/svg10.dtd">
<svg version="1.0" xmlns="http://www.w3.org/2000/svg"
 width="512.000000pt" height="512.000000pt" viewBox="0 0 512.000000 512.000000"
 preserveAspectRatio="xMidYMid meet">
<g transform="translate(0.000000,512.000000) scale(0.100000,-0.100000)"
fill="#000000" stroke="none">
<path d="M1090 2655 c-399 -585 -725 -1068 -724 -1072 0 -4 58 -47 129 -95
l128 -88 27 38 c60 84 1422 2085 1426 2096 3 9 -244 187 -258 186 -2 0 -329
-480 -728 -1065z"/>
<path d="M3211 3669 c-18 -4 -45 -16 -60 -26 -30 -23 -1420 -2054 -1414 -2066
4 -6 236 -166 254 -175 4 -1 287 409 630 912 343 503 624 914 625 913 1 -1
282 -411 624 -912 343 -500 624 -911 625 -912 1 -2 61 38 133 88 111 76 131
93 122 107 -43 78 -1391 2029 -1411 2044 -33 25 -85 36 -128 27z"/>
</g>
</svg>
