<svg width="119" height="117" viewBox="0 0 119 117" fill="none" xmlns="http://www.w3.org/2000/svg">
    <path
        d="M54.1022 115.078C83.4297 115.078 107.204 91.1538 107.204 61.6419C107.204 32.1301 83.4297 8.20596 54.1022 8.20596C24.7747 8.20596 1 32.1301 1 61.6419C1 91.1538 24.7747 115.078 54.1022 115.078Z"
        fill="#F1F3F9" stroke="#D6DCE8" stroke-width="2" stroke-miterlimit="10" />
    <path
        d="M115.883 47.5493C117.538 46.0271 117.654 43.4428 116.141 41.7771C114.628 40.1114 112.06 39.9951 110.405 41.5173C108.75 43.0395 108.634 45.6238 110.147 47.2895C111.659 48.9552 114.228 49.0715 115.883 47.5493Z"
        fill="#EAEEF9" />
    <path
        d="M23.4054 12.8115C24.8084 12.3526 25.576 10.8362 25.12 9.42442C24.664 8.01266 23.1571 7.24018 21.7541 7.69904C20.3512 8.1579 19.5835 9.67433 20.0395 11.0861C20.4955 12.4979 22.0025 13.2703 23.4054 12.8115Z"
        fill="#EAEEF9" />
    <path
        d="M29.236 4.04143C30.19 3.72941 30.712 2.69823 30.4019 1.73823C30.0918 0.778235 29.0671 0.252949 28.1131 0.564974C27.1591 0.876998 26.6371 1.90817 26.9472 2.86817C27.2573 3.82817 28.282 4.35345 29.236 4.04143Z"
        fill="#EAEEF9" />
    <path
        d="M116.183 29.3845C116.88 28.7436 116.928 27.6555 116.291 26.9541C115.655 26.2528 114.573 26.2038 113.876 26.8447C113.179 27.4856 113.131 28.5737 113.768 29.2751C114.404 29.9764 115.486 30.0254 116.183 29.3845Z"
        fill="#EAEEF9" />
    <path
        d="M73.055 4.24387C73.5344 3.80304 73.5679 3.05462 73.1298 2.57222C72.6917 2.08983 71.948 2.05614 71.4686 2.49697C70.9892 2.9378 70.9557 3.68622 71.3938 4.16862C71.8319 4.65101 72.5756 4.6847 73.055 4.24387Z"
        fill="#EAEEF9" />
    <path
        d="M100.051 100.588H9.37915C6.08199 100.588 3.53418 98.0402 3.53418 94.8929V30.1486C3.53418 27.0013 6.08199 24.4535 9.37915 24.4535H100.051C103.348 24.4535 105.896 27.0013 105.896 30.1486V94.8929C105.746 98.0402 103.198 100.588 100.051 100.588Z"
        fill="white" stroke="#D6DCE8" stroke-width="2" stroke-miterlimit="10" />
    <path
        d="M55.0375 24.4535H100.448C103.746 24.4535 106.293 27.0013 106.293 30.1486V94.8929C106.293 98.0402 103.746 100.588 100.448 100.588H55.0375V24.4535Z"
        fill="#F1F3F9" stroke="#D6DCE8" stroke-width="2" stroke-miterlimit="10" />
    <path d="M3.53418 40.4896H105.746" stroke="#D6DCE8" stroke-width="2" stroke-miterlimit="10" />
    <path
        d="M12.6762 35.0942C14.0833 35.0942 15.224 33.9536 15.224 32.5464C15.224 31.1393 14.0833 29.9986 12.6762 29.9986C11.2691 29.9986 10.1284 31.1393 10.1284 32.5464C10.1284 33.9536 11.2691 35.0942 12.6762 35.0942Z"
        fill="#AAB2C5" />
    <path
        d="M20.1699 35.0942C21.577 35.0942 22.7177 33.9536 22.7177 32.5464C22.7177 31.1393 21.577 29.9986 20.1699 29.9986C18.7628 29.9986 17.6221 31.1393 17.6221 32.5464C17.6221 33.9536 18.7628 35.0942 20.1699 35.0942Z"
        fill="#AAB2C5" />
    <path
        d="M27.8129 35.0942C29.2201 35.0942 30.3608 33.9536 30.3608 32.5464C30.3608 31.1393 29.2201 29.9986 27.8129 29.9986C26.4058 29.9986 25.2651 31.1393 25.2651 32.5464C25.2651 33.9536 26.4058 35.0942 27.8129 35.0942Z"
        fill="#AAB2C5" />
    <path
        d="M26.9141 49.1821H12.5265C11.6273 49.1821 10.8779 48.4328 10.8779 47.8333C10.8779 47.0839 11.6273 46.4844 12.5265 46.4844H26.9141C27.8134 46.4844 28.5627 47.2338 28.5627 47.8333C28.5627 48.5826 27.8134 49.1821 26.9141 49.1821Z"
        fill="#AAB2C5" />
    <path
        d="M23.4671 72.4122H12.6764C11.7772 72.4122 11.0278 71.6628 11.0278 71.0633C11.0278 70.314 11.7772 69.7145 12.6764 69.7145H23.4671C24.3664 69.7145 25.1157 70.4638 25.1157 71.0633C24.9658 71.6628 24.2165 72.4122 23.4671 72.4122Z"
        fill="#AAB2C5" />
    <path
        d="M36.6555 80.0557H18.3712C17.472 80.0557 16.7227 79.3064 16.7227 78.7069C16.7227 77.9575 17.472 77.358 18.3712 77.358H36.6555C37.5547 77.358 38.3041 78.1074 38.3041 78.7069C38.1542 79.4562 37.4049 80.0557 36.6555 80.0557Z"
        fill="#D6DCE8" />
    <path
        d="M54.64 77.208V80.0556H43.6994C42.8001 80.0556 42.0508 79.3062 42.0508 78.7067C42.0508 78.2571 42.2007 77.9574 42.6503 77.6576C42.95 77.5077 43.2498 77.208 43.8492 77.208H54.64Z"
        fill="#D6DCE8" />
    <path
        d="M33.6583 87.5493H12.5265C11.6273 87.5493 10.8779 86.7999 10.8779 86.2004C10.8779 85.4511 11.6273 84.8516 12.5265 84.8516H33.6583C34.5576 84.8516 35.3069 85.601 35.3069 86.2004C35.3069 86.9498 34.7074 87.5493 33.6583 87.5493Z"
        fill="#AAB2C5" />
    <path
        d="M21.9685 95.3425H12.9762C12.077 95.3425 11.3276 94.5932 11.3276 93.9937C11.3276 93.2443 12.077 92.6448 12.9762 92.6448H21.9685C22.8677 92.6448 23.6171 93.3942 23.6171 93.9937C23.6171 94.743 23.0176 95.3425 21.9685 95.3425Z"
        fill="#D6DCE8" />
    <path
        d="M29.6116 95.3425H27.6632C26.764 95.3425 26.0146 94.5932 26.0146 93.9937C26.0146 93.2443 26.764 92.6448 27.6632 92.6448H29.6116C30.5108 92.6448 31.2601 93.3942 31.2601 93.9937C31.2601 94.743 30.5108 95.3425 29.6116 95.3425Z"
        fill="#D6DCE8" />
    <path
        d="M16.8728 64.9186H12.5265C11.6273 64.9186 10.8779 64.1692 10.8779 63.5698C10.8779 62.8204 11.6273 62.2209 12.5265 62.2209H16.8728C17.772 62.2209 18.5214 62.9703 18.5214 63.5698C18.5214 64.3191 17.772 64.9186 16.8728 64.9186Z"
        fill="#D6DCE8" />
    <path
        d="M33.6583 56.9754H12.5265C11.6273 56.9754 10.8779 56.226 10.8779 55.6265C10.8779 54.8772 11.6273 54.2777 12.5265 54.2777H33.6583C34.5576 54.2777 35.3069 55.027 35.3069 55.6265C35.3069 56.3759 34.7074 56.9754 33.6583 56.9754Z"
        fill="#D6DCE8" />
    <path
        d="M54.6403 54.128V56.9756H40.7023C39.8031 56.9756 39.0537 56.2262 39.0537 55.6267C39.0537 55.1771 39.2036 54.8774 39.6532 54.5776C39.8031 54.2779 40.2527 54.128 40.8522 54.128H54.6403Z"
        fill="#AAB2C5" />
    <path d="M54.6396 24.4535V100.588" stroke="#D6DCE8" stroke-width="2" stroke-miterlimit="10" />
    <path
        d="M99.7514 66.5673C95.4051 75.7094 85.9632 82.004 74.8728 82.004C63.9322 82.004 54.4903 75.7094 49.9941 66.5673C54.3404 57.4252 63.7823 51.1306 74.8728 51.1306C85.9632 51.1306 95.4051 57.4252 99.7514 66.5673Z"
        fill="white" stroke="#C5CCDA" stroke-width="2" stroke-miterlimit="10" />
    <path
        d="M83.2655 66.5674C83.2655 71.2134 79.3689 74.8103 74.8728 74.8103C70.3766 74.8103 66.48 71.2134 66.48 66.7172V66.5674C66.48 65.6681 66.6299 64.7689 66.9296 64.0195C67.0795 63.5699 67.2293 63.1203 67.5291 62.6707C68.728 60.7224 70.3766 59.2237 72.6247 58.6242C73.2242 58.4743 73.8237 58.4743 74.2733 58.3244C74.4232 58.3244 74.7229 58.3244 74.8728 58.3244C79.5188 58.1746 83.2655 61.9214 83.2655 66.5674Z"
        fill="#D6DCE8" stroke="#AAB2C5" stroke-width="2" stroke-miterlimit="10" />
    <path
        d="M76.8208 62.221C76.8208 64.6189 74.7226 66.7171 72.1748 66.7171C69.7769 66.7171 67.8286 64.9187 67.5288 62.5207C68.7278 60.5724 70.3764 59.0737 72.6244 58.4742C73.2239 58.3243 73.8234 58.3243 74.273 58.1745C75.7717 58.9238 76.8208 60.4225 76.8208 62.221Z"
        fill="white" stroke="white" stroke-width="2" stroke-miterlimit="10" stroke-linecap="round"
        stroke-linejoin="round" />
</svg>